<svg width="700" height="530" viewBox="0 0 700 530" xmlns="http://www.w3.org/2000/svg">
<style> .legend { font: 14px sans-serif; } .label { font: 12px sans-serif; } </style>
<rect width="700" height="530" fill="white"/>
<path d="M 200,200 L 200.0,20.0 A 180,180 0 0,1 203.46947202286063,20.033439873173705 Z" fill="#e6194b" stroke="#222" stroke-width="1"/>
<text x="201.12763078063247" y="83.00543410558518" class="label" text-anchor="middle" alignment-baseline="middle" transform="rotate(270.5522178192509 201.12763078063247 83.00543410558518)" fill="#fff">Algorithms</text>
<path d="M 200,200 L 203.46947202286063,20.033439873173705 A 180,180 0 0,1 362.81404385761647,123.24332522359931 Z" fill="#3cb44b" stroke="#222" stroke-width="1"/>
<text x="263.6058197357361" y="101.79969605064838" class="label" text-anchor="middle" alignment-baseline="middle" transform="rotate(302.93173974178706 263.6058197357361 101.79969605064838)" fill="#000">Async</text>
<path d="M 200,200 L 362.81404385761647,123.24332522359931 A 180,180 0 0,1 379.8744805549286,193.27904433174652 Z" fill="#ffe119" stroke="#222" stroke-width="1"/>
<text x="313.67588826033597" y="172.3089828965491" class="label" text-anchor="middle" alignment-baseline="middle" transform="rotate(346.3095998977374 313.67588826033597 172.3089828965491)" fill="#000">AsyncStreams</text>
<path d="M 200,200 L 379.8744805549286,193.27904433174652 A 180,180 0 0,1 327.3686374768419,327.1897408885356 Z" fill="#4363d8" stroke="#222" stroke-width="1"/>
<text x="308.92611885730537" y="242.70949110776417" class="label" text-anchor="middle" alignment-baseline="middle" transform="rotate(381.40994503387446 308.92611885730537 242.70949110776417)" fill="#fff">Build</text>
<path d="M 200,200 L 327.3686374768419,327.1897408885356 A 180,180 0 0,1 306.17526698053007,345.35065421804325 Z" fill="#f58231" stroke="#222" stroke-width="1"/>
<text x="276.13091118217176" y="288.84303215543844" class="label" text-anchor="middle" alignment-baseline="middle" transform="rotate(409.40623801610633 276.13091118217176 288.84303215543844)" fill="#000">Containers</text>
<path d="M 200,200 L 306.17526698053007,345.35065421804325 A 180,180 0 0,1 284.76573647783357,358.7915927225698 Z" fill="#911eb4" stroke="#222" stroke-width="1"/>
<text x="262.2093855026977" y="299.09082881567167" class="label" text-anchor="middle" alignment-baseline="middle" transform="rotate(417.87933018023773 262.2093855026977 299.09082881567167)" fill="#fff">File</text>
<path d="M 200,200 L 284.76573647783357,358.7915927225698 A 180,180 0 0,1 240.10410418079522,375.4755277178442 Z" fill="#46f0f0" stroke="#222" stroke-width="1"/>
<text x="240.94333282128642" y="309.60220571450816" class="label" text-anchor="middle" alignment-baseline="middle" transform="rotate(429.51617026716093 240.94333282128642 309.60220571450816)" fill="#000">FileSystem</text>
<path d="M 200,200 L 240.10410418079522,375.4755277178442 A 180,180 0 0,1 225.288150817908,378.21478453879956 Z" fill="#f032e6" stroke="#222" stroke-width="1"/>
<text x="221.27112099706977" y="315.0501604150469" class="label" text-anchor="middle" alignment-baseline="middle" transform="rotate(439.525118241084 221.27112099706977 315.0501604150469)" fill="#fff">FileSystemIterator</text>
<path d="M 200,200 L 225.288150817908,378.21478453879956 A 180,180 0 0,1 181.13215871266422,379.00839244335975 Z" fill="#bcf60c" stroke="#222" stroke-width="1"/>
<text x="202.1024809404155" y="316.981107764866" class="label" text-anchor="middle" alignment-baseline="middle" transform="rotate(448.9703438578551 202.1024809404155 316.981107764866)" fill="#000">FileSystemWatcher</text>
<path d="M 200,200 L 181.13215871266422,379.00839244335975 A 180,180 0 0,1 125.04601650815067,363.6517655227208 Z" fill="#fabebe" stroke="#222" stroke-width="1"/>
<text x="169.10215446020536" y="312.84645825633606" class="label" text-anchor="middle" alignment-baseline="middle" transform="rotate(285.3125399463122 169.10215446020536 312.84645825633606)" fill="#000">Foundation</text>
<path d="M 200,200 L 125.04601650815067,363.6517655227208 A 180,180 0 0,1 113.45415064752315,357.8284383748961 Z" fill="#008080" stroke="#222" stroke-width="1"/>
<text x="147.47844425868504" y="304.5489654779613" class="label" text-anchor="middle" alignment-baseline="middle" transform="rotate(296.6732711236099 147.47844425868504 304.5489654779613)" fill="#fff">Hashing</text>
<path d="M 200,200 L 113.45415064752315,357.8284383748961 A 180,180 0 0,1 75.68039552562378,330.1715634973117 Z" fill="#e6beff" stroke="#222" stroke-width="1"/>
<text x="130.88178127111564" y="294.4016516791211" class="label" text-anchor="middle" alignment-baseline="middle" transform="rotate(306.2105330435894 130.88178127111564 294.4016516791211)" fill="#000">Http</text>
<path d="M 200,200 L 75.68039552562378,330.1715634973117 A 180,180 0 0,1 47.3032676779884,295.3084882797956 Z" fill="#9a6324" stroke="#222" stroke-width="1"/>
<text x="109.25950827254226" y="273.85907636207736" class="label" text-anchor="middle" alignment-baseline="middle" transform="rotate(320.85580979164 109.25950827254226 273.85907636207736)" fill="#fff">Memory</text>
<path d="M 200,200 L 47.3032676779884,295.3084882797956 A 180,180 0 0,1 26.238245534905417,246.97715067149323 Z" fill="#fffac8" stroke="#222" stroke-width="1"/>
<text x="92.74455304459302" y="246.74686190960716" class="label" text-anchor="middle" alignment-baseline="middle" transform="rotate(336.4502109165282 92.74455304459302 246.74686190960716)" fill="#000">Plugin</text>
<path d="M 200,200 L 26.238245534905417,246.97715067149323 A 180,180 0 0,1 20.00209005274391,200.86741836473945 Z" fill="#800000" stroke="#222" stroke-width="1"/>
<text x="84.05559176707472" y="215.68101398241737" class="label" text-anchor="middle" alignment-baseline="middle" transform="rotate(352.29771187523966 84.05559176707472 215.68101398241737)" fill="#fff">Process</text>
<path d="M 200,200 L 20.00209005274391,200.86741836473945 A 180,180 0 0,1 21.66051985331501,175.60676690124603 Z" fill="#aaffc3" stroke="#222" stroke-width="1"/>
<text x="83.25133893932428" y="192.33513597384388" class="label" text-anchor="middle" alignment-baseline="middle" transform="rotate(363.7562316246964 83.25133893932428 192.33513597384388)" fill="#000">Reflection</text>
<path d="M 200,200 L 21.66051985331501,175.60676690124603 A 180,180 0 0,1 26.116213341315728,153.47657861638743 Z" fill="#808000" stroke="#222" stroke-width="1"/>
<text x="85.30171437575814" y="176.906640026626" class="label" text-anchor="middle" alignment-baseline="middle" transform="rotate(371.3837402530998 85.30171437575814 176.906640026626)" fill="#fff">SerializationBinary</text>
<path d="M 200,200 L 26.116213341315728,153.47657861638743 A 180,180 0 0,1 33.80213625580731,130.8749677261069 Z" fill="#ffd8b1" stroke="#222" stroke-width="1"/>
<text x="89.22964313304229" y="162.33133876062445" class="label" text-anchor="middle" alignment-baseline="middle" transform="rotate(378.781158123482 89.22964313304229 162.33133876062445)" fill="#000">SerializationText</text>
<path d="M 200,200 L 33.80213625580731,130.8749677261069 A 180,180 0 0,1 48.11244991793953,103.40718385889369 Z" fill="#000075" stroke="#222" stroke-width="1"/>
<text x="96.23751632607191" y="145.94126359395915" class="label" text-anchor="middle" alignment-baseline="middle" transform="rotate(387.51885465933776 96.23751632607191 145.94126359395915)" fill="#fff">Socket</text>
<path d="M 200,200 L 48.11244991793953,103.40718385889369 A 180,180 0 0,1 144.8790342820621,28.64750034410963 Z" fill="#808080" stroke="#222" stroke-width="1"/>
<text x="128.46932665846964" y="107.4129449042293" class="label" text-anchor="middle" alignment-baseline="middle" transform="rotate(412.3111338361242 128.46932665846964 107.4129449042293)" fill="#fff">Strings</text>
<path d="M 200,200 L 144.8790342820621,28.64750034410963 A 180,180 0 0,1 155.39967321504506,25.61304277362018 Z" fill="#ffffff" stroke="#222" stroke-width="1"/>
<text x="167.57557869838018" y="87.58266635765166" class="label" text-anchor="middle" alignment-baseline="middle" transform="rotate(433.9109037453661 167.57557869838018 87.58266635765166)" fill="#000">Testing</text>
<path d="M 200,200 L 155.39967321504506,25.61304277362018 A 180,180 0 0,1 187.0360506627778,20.46745137000383 Z" fill="#000000" stroke="#222" stroke-width="1"/>
<text x="181.21701590558982" y="84.5175359264051" class="label" text-anchor="middle" alignment-baseline="middle" transform="rotate(440.76185606544794 181.21701590558982 84.5175359264051)" fill="#fff">Threading</text>
<path d="M 200,200 L 187.0360506627778,20.46745137000383 A 180,180 0 0,1 199.99999999999966,20.0 Z" fill="#e6194b" stroke="#222" stroke-width="1"/>
<text x="195.7839783747713" y="83.07598552198267" class="label" text-anchor="middle" alignment-baseline="middle" transform="rotate(447.9349354467595 195.7839783747713 83.07598552198267)" fill="#fff">Time</text>
<rect x="420" y="20" width="18" height="18" fill="#e6194b" stroke="#222"/>
<text x="444" y="34" class="legend">Algorithms (96)</text>
<rect x="420" y="42" width="18" height="18" fill="#3cb44b" stroke="#222"/>
<text x="444" y="56" class="legend">Async (5533)</text>
<rect x="420" y="64" width="18" height="18" fill="#ffe119" stroke="#222"/>
<text x="444" y="78" class="legend">AsyncStreams (2008)</text>
<rect x="420" y="86" width="18" height="18" fill="#4363d8" stroke="#222"/>
<text x="444" y="100" class="legend">Build (4094)</text>
<rect x="420" y="108" width="18" height="18" fill="#f58231" stroke="#222"/>
<text x="444" y="122" class="legend">Containers (773)</text>
<rect x="420" y="130" width="18" height="18" fill="#911eb4" stroke="#222"/>
<text x="444" y="144" class="legend">File (700)</text>
<rect x="420" y="152" width="18" height="18" fill="#46f0f0" stroke="#222"/>
<text x="444" y="166" class="legend">FileSystem (1323)</text>
<rect x="420" y="174" width="18" height="18" fill="#f032e6" stroke="#222"/>
<text x="444" y="188" class="legend">FileSystemIterator (417)</text>
<rect x="420" y="196" width="18" height="18" fill="#bcf60c" stroke="#222"/>
<text x="444" y="210" class="legend">FileSystemWatcher (1225)</text>
<rect x="420" y="218" width="18" height="18" fill="#fabebe" stroke="#222"/>
<text x="444" y="232" class="legend">Foundation (1616)</text>
<rect x="420" y="240" width="18" height="18" fill="#008080" stroke="#222"/>
<text x="444" y="254" class="legend">Hashing (359)</text>
<rect x="420" y="262" width="18" height="18" fill="#e6beff" stroke="#222"/>
<text x="444" y="276" class="legend">Http (1299)</text>
<rect x="420" y="284" width="18" height="18" fill="#9a6324" stroke="#222"/>
<text x="444" y="298" class="legend">Memory (1247)</text>
<rect x="420" y="306" width="18" height="18" fill="#fffac8" stroke="#222"/>
<text x="444" y="320" class="legend">Plugin (1464)</text>
<rect x="420" y="328" width="18" height="18" fill="#800000" stroke="#222"/>
<text x="444" y="342" class="legend">Process (1291)</text>
<rect x="420" y="350" width="18" height="18" fill="#aaffc3" stroke="#222"/>
<text x="444" y="364" class="legend">Reflection (701)</text>
<rect x="420" y="372" width="18" height="18" fill="#808000" stroke="#222"/>
<text x="444" y="386" class="legend">SerializationBinary (625)</text>
<rect x="420" y="394" width="18" height="18" fill="#ffd8b1" stroke="#222"/>
<text x="444" y="408" class="legend">SerializationText (661)</text>
<rect x="420" y="416" width="18" height="18" fill="#000075" stroke="#222"/>
<text x="444" y="430" class="legend">Socket (858)</text>
<rect x="420" y="438" width="18" height="18" fill="#808080" stroke="#222"/>
<text x="444" y="452" class="legend">Strings (3452)</text>
<rect x="420" y="460" width="18" height="18" fill="#ffffff" stroke="#222"/>
<text x="444" y="474" class="legend">Testing (303)</text>
<rect x="420" y="482" width="18" height="18" fill="#000000" stroke="#222"/>
<text x="444" y="496" class="legend">Threading (888)</text>
<rect x="420" y="504" width="18" height="18" fill="#e6194b" stroke="#222"/>
<text x="444" y="518" class="legend">Time (359)</text>
</svg>