<?xml version="1.0" encoding="UTF-8" standalone="no"?>
<!DOCTYPE svg PUBLIC "-//W3C//DTD SVG 1.1//EN" "http://www.w3.org/Graphics/SVG/1.1/DTD/svg11.dtd">
<svg width="100%" height="100%" viewBox="0 0 1024 1024" version="1.1" xmlns="http://www.w3.org/2000/svg" xmlns:xlink="http://www.w3.org/1999/xlink" xml:space="preserve" xmlns:serif="http://www.serif.com/" style="fill-rule:evenodd;clip-rule:evenodd;stroke-linejoin:round;stroke-miterlimit:2;">
    <g transform="matrix(1.00436,0,0,1.00381,-1.72004,-2.85515)">
        <path d="M1021.27,257.873C1021.27,117.119 907.057,2.844 766.38,2.844L256.602,2.844C115.925,2.844 1.713,117.119 1.713,257.873L1.713,767.93C1.713,908.684 115.925,1022.96 256.602,1022.96L766.38,1022.96C907.057,1022.96 1021.27,908.684 1021.27,767.93L1021.27,257.873Z" style="fill:url(#_Linear1);"/>
    </g>
    <g transform="matrix(1,0,0,1,-66.6939,-8.22145)">
        <g transform="matrix(346.667,0,0,346.667,145.048,664.862)">
            <path d="M0.036,-0.233L0.177,-0.247C0.185,-0.199 0.202,-0.165 0.228,-0.143C0.254,-0.12 0.289,-0.109 0.333,-0.109C0.38,-0.109 0.415,-0.119 0.438,-0.139C0.462,-0.159 0.474,-0.182 0.474,-0.208C0.474,-0.225 0.469,-0.239 0.459,-0.251C0.449,-0.263 0.431,-0.273 0.407,-0.282C0.39,-0.288 0.351,-0.299 0.291,-0.313C0.214,-0.333 0.159,-0.356 0.128,-0.384C0.084,-0.424 0.062,-0.472 0.062,-0.528C0.062,-0.565 0.072,-0.599 0.093,-0.631C0.114,-0.662 0.143,-0.687 0.182,-0.703C0.221,-0.72 0.268,-0.728 0.323,-0.728C0.413,-0.728 0.481,-0.708 0.526,-0.669C0.572,-0.63 0.595,-0.577 0.598,-0.511L0.453,-0.505C0.447,-0.542 0.434,-0.568 0.413,-0.584C0.393,-0.6 0.362,-0.608 0.322,-0.608C0.28,-0.608 0.247,-0.6 0.223,-0.583C0.208,-0.571 0.2,-0.557 0.2,-0.538C0.2,-0.521 0.207,-0.507 0.222,-0.495C0.24,-0.479 0.284,-0.463 0.354,-0.447C0.425,-0.43 0.477,-0.413 0.51,-0.395C0.544,-0.378 0.571,-0.353 0.59,-0.323C0.609,-0.292 0.618,-0.254 0.618,-0.208C0.618,-0.167 0.607,-0.129 0.584,-0.093C0.561,-0.057 0.529,-0.031 0.487,-0.013C0.446,0.004 0.394,0.013 0.332,0.013C0.241,0.013 0.172,-0.008 0.123,-0.05C0.075,-0.092 0.046,-0.153 0.036,-0.233Z" style="fill:rgb(120,218,255);fill-rule:nonzero;"/>
        </g>
        <g transform="matrix(346.667,0,0,346.667,376.272,664.862)">
            <path d="M0.531,-0.263L0.671,-0.219C0.649,-0.141 0.614,-0.083 0.564,-0.045C0.514,-0.007 0.45,0.012 0.374,0.012C0.278,0.012 0.2,-0.02 0.139,-0.085C0.078,-0.15 0.047,-0.239 0.047,-0.352C0.047,-0.471 0.078,-0.563 0.14,-0.629C0.201,-0.695 0.282,-0.728 0.382,-0.728C0.47,-0.728 0.541,-0.702 0.596,-0.65C0.628,-0.62 0.653,-0.576 0.669,-0.519L0.526,-0.484C0.517,-0.521 0.5,-0.551 0.473,-0.572C0.446,-0.594 0.413,-0.604 0.375,-0.604C0.322,-0.604 0.279,-0.585 0.246,-0.547C0.213,-0.509 0.196,-0.448 0.196,-0.362C0.196,-0.272 0.213,-0.207 0.245,-0.169C0.278,-0.131 0.32,-0.111 0.372,-0.111C0.41,-0.111 0.444,-0.124 0.471,-0.148C0.499,-0.172 0.519,-0.211 0.531,-0.263Z" style="fill:rgb(120,218,255);fill-rule:nonzero;"/>
        </g>
        <g transform="matrix(346.667,0,0,346.667,626.623,664.862)">
            <path d="M0.229,-0.103L0.229,-0.289L0.042,-0.289L0.042,-0.417L0.229,-0.417L0.229,-0.604L0.354,-0.604L0.354,-0.417L0.542,-0.417L0.542,-0.289L0.354,-0.289L0.354,-0.103L0.229,-0.103Z" style="fill:rgb(120,218,255);fill-rule:nonzero;"/>
        </g>
        <g transform="matrix(346.667,0,0,346.667,829.071,664.862)">
            <path d="M0.229,-0.103L0.229,-0.289L0.042,-0.289L0.042,-0.417L0.229,-0.417L0.229,-0.604L0.354,-0.604L0.354,-0.417L0.542,-0.417L0.542,-0.289L0.354,-0.289L0.354,-0.103L0.229,-0.103Z" style="fill:rgb(120,218,255);fill-rule:nonzero;"/>
        </g>
    </g>
    <defs>
        <linearGradient id="_Linear1" x1="0" y1="0" x2="1" y2="0" gradientUnits="userSpaceOnUse" gradientTransform="matrix(1019.56,0,0,1020.11,1.71257,512.901)"><stop offset="0" style="stop-color:rgb(105,0,137);stop-opacity:1"/><stop offset="1" style="stop-color:rgb(0,8,255);stop-opacity:1"/></linearGradient>
    </defs>
</svg>
